<svg t="1708675396763" class="icon" viewBox="0 0 1024 1024" version="1.1" xmlns="http://www.w3.org/2000/svg" p-id="15918" width="16" height="16"><path d="M512.136533 238.933333m-238.933333 0a238.933333 238.933333 0 1 0 477.866667 0 238.933333 238.933333 0 1 0-477.866667 0Z" fill="#cdcdcd" p-id="15919"></path><path d="M861.525333 615.6288A273.066667 273.066667 0 0 0 651.0592 1024H1.2288a512 512 0 0 1 860.296533-408.3712z" fill="#cdcdcd" p-id="15920"></path><path d="M781.1072 787.6608v149.504c0 16.520533 0.341333 33.314133 1.2288 50.722133h-24.7808c0.682667-17.2032 1.2288-34.2016 1.2288-50.722133v-106.973867a402.978133 402.978133 0 0 1-29.422933 42.325334c-4.778667-6.212267-10.6496-12.288-17.749334-17.749334 12.629333-11.6736 25.531733-30.651733 38.843734-56.5248 13.312-25.873067 23.210667-53.6576 29.354666-83.421866 11.741867 5.461333 20.821333 9.0112 27.170134 10.581333-4.642133 7.850667-13.312 28.535467-25.873067 62.2592z m95.300267-64.7168c-1.570133 9.4208-0.341333 40.413867 3.549866 93.047467 37.546667-7.099733 66.628267-13.653333 87.04-20.002134l5.870934 22.3232c-8.738133 0.682667-38.843733 6.690133-90.589867 17.749334 9.4208 49.3568 23.415467 83.421867 41.847467 102.4 18.432 18.773333 29.013333 23.893333 31.675733 15.223466 2.730667-8.669867 4.437333-18.090667 5.3248-28.194133 8.669867 5.461333 17.2032 9.0112 25.941333 10.6496-5.5296 21.981867-10.922667 36.4544-15.9744 43.554133-5.188267 7.099733-14.5408 8.192-28.194133 3.549867-13.858133-4.778667-28.672-17.2032-44.6464-37.546667-16.110933-20.411733-29.2864-55.296-39.389867-104.721066-29.764267 6.144-48.196267 10.6496-55.296 12.970666l-7.031466-22.391466c12.561067-1.570133 32.5632-5.12 60.074666-10.581334-4.096-51.2-6.417067-85.060267-7.304533-101.5808 4.778667 0.682667 13.653333 1.979733 27.101867 3.549867z m54.0672 61.166933a249.4464 249.4464 0 0 0-27.101867-40.072533c6.144-3.8912 12.561067-8.669867 18.773333-14.199467 14.336 17.408 24.098133 30.3104 29.627734 38.980267-7.099733 4.778667-14.199467 9.762133-21.2992 15.291733z" fill="#cdcdcd" p-id="15921"></path></svg>