<svg t="1708675479630" class="icon" viewBox="0 0 1024 1024" version="1.1" xmlns="http://www.w3.org/2000/svg" p-id="18120" width="16" height="16"><path d="M60.15 308.92h903.7c32.318 0 58.604-29.02 58.604-64.696s-26.286-64.696-58.604-64.696H60.15c-32.307 0-58.594 29.02-58.594 64.696S27.843 308.92 60.15 308.92z m903.7 138.384H60.15c-32.307 0-58.594 29.02-58.594 64.696s26.287 64.696 58.594 64.696h903.7c32.318 0 58.604-29.03 58.604-64.696s-26.297-64.696-58.604-64.696z m0 267.765H60.15c-32.307 0-58.594 29.03-58.594 64.697s26.287 64.696 58.594 64.696h903.7c32.318 0 58.604-29.02 58.604-64.696s-26.297-64.697-58.604-64.697z" p-id="18121" fill="#cdcdcd"></path></svg>