<svg t="1708675539681" class="icon" viewBox="0 0 1024 1024" version="1.1" xmlns="http://www.w3.org/2000/svg" p-id="19198" width="16" height="16"><path d="M716.253867 979.694933a35.771733 35.771733 0 0 1-10.0352-1.570133l-190.600534-61.576533-198.382933 61.576533a34.133333 34.133333 0 0 1-42.666667-24.1664 36.317867 36.317867 0 0 1 23.074134-44.714667l208.418133-64.648533a33.9968 33.9968 0 0 1 19.8656 0.136533l200.4992 64.648534a36.386133 36.386133 0 0 1 24.1664 39.7312 35.293867 35.293867 0 0 1-34.338133 30.583466z" fill="#cdcdcd" p-id="19199"></path><path d="M868.078933 809.028267H155.921067c-67.106133 0-121.787733-59.050667-121.787734-131.754667V189.781333C34.133333 117.1456 88.746667 58.026667 155.921067 58.026667h712.157866c67.106133 0 121.787733 59.118933 121.787734 131.754666v487.492267a135.850667 135.850667 0 0 1-32.904534 90.043733 116.394667 116.394667 0 0 1-88.8832 41.710934z m-712.157866-682.666667c-29.4912 0-53.521067 28.4672-53.521067 63.419733v487.492267c0 35.0208 24.029867 63.488 53.521067 63.488h712.157866a48.5376 48.5376 0 0 0 37.2736-18.158933 68.1984 68.1984 0 0 0 16.247467-45.124267V189.781333c0-35.0208-24.029867-63.488-53.521067-63.488H155.921067z" fill="#cdcdcd" p-id="19200"></path><path d="M307.2 570.094933h409.6a34.133333 34.133333 0 0 1 0 68.266667h-409.6a34.133333 34.133333 0 0 1 0-68.266667zM307.2 297.028267a34.133333 34.133333 0 0 1 34.133333 34.133333v136.533333a34.133333 34.133333 0 0 1-68.266666 0v-136.533333a34.133333 34.133333 0 0 1 34.133333-34.133333zM512 228.7616a34.133333 34.133333 0 0 1 34.133333 34.133333v204.8a34.133333 34.133333 0 0 1-68.266666 0v-204.8a34.133333 34.133333 0 0 1 34.133333-34.133333zM716.8 297.028267a34.133333 34.133333 0 0 1 34.133333 34.133333v136.533333a34.133333 34.133333 0 0 1-68.266666 0v-136.533333a34.133333 34.133333 0 0 1 34.133333-34.133333z" fill="#cdcdcd" p-id="19201"></path></svg>